<svg width="94" height="59" viewBox="0 0 94 59" fill="none" xmlns="http://www.w3.org/2000/svg">
<path d="M38.6612 9.36364L28.7919 29H20.6101L17.2862 9.36364H24.4453L25.468 22.3523H25.6726L30.9908 9.36364H38.6612ZM37.3956 29L40.6683 9.36364H47.7251L44.4524 29H37.3956ZM44.5036 7.31818C43.549 7.31818 42.7777 7.00284 42.1896 6.37216C41.6016 5.73295 41.3842 4.97443 41.5376 4.09659C41.6911 3.2017 42.1598 2.44318 42.9439 1.82102C43.728 1.19034 44.5973 0.875 45.5518 0.875C46.5149 0.875 47.282 1.19034 47.853 1.82102C48.424 2.44318 48.6371 3.2017 48.4922 4.09659C48.3558 4.97443 47.8956 5.73295 47.1115 6.37216C46.3359 7.00284 45.4666 7.31818 44.5036 7.31818ZM47.9457 29L52.2923 2.81818H59.3491L57.7127 12.7898H57.815C58.1729 12.125 58.646 11.5156 59.234 10.9616C59.8221 10.3991 60.5124 9.9517 61.305 9.61932C62.0977 9.27841 62.9798 9.10795 63.9514 9.10795C65.2468 9.10795 66.4187 9.45312 67.467 10.1435C68.5238 10.8338 69.2951 11.9205 69.7809 13.4034C70.2752 14.8864 70.3263 16.8125 69.9343 19.1818C69.5593 21.4489 68.8945 23.3281 67.94 24.8196C66.9854 26.3111 65.8604 27.4233 64.565 28.1562C63.2695 28.8892 61.9229 29.2557 60.5252 29.2557C59.6048 29.2557 58.8079 29.1065 58.1346 28.8082C57.4698 28.5014 56.9286 28.0881 56.511 27.5682C56.1019 27.0398 55.8207 26.4432 55.6673 25.7784H55.4627L54.9513 29H47.9457ZM56.4854 19.1818C56.332 20.1364 56.3235 20.9631 56.4599 21.6619C56.5962 22.3523 56.8647 22.8892 57.2653 23.2727C57.6658 23.6477 58.19 23.8352 58.8377 23.8352C59.4854 23.8352 60.0692 23.652 60.5891 23.2855C61.109 22.9105 61.5479 22.3778 61.9059 21.6875C62.2639 20.9886 62.5195 20.1534 62.6729 19.1818C62.8264 18.2102 62.8391 17.3793 62.7113 16.6889C62.5835 15.9901 62.3235 15.4574 61.9315 15.0909C61.5394 14.7159 61.0195 14.5284 60.3718 14.5284C59.7241 14.5284 59.136 14.7159 58.6076 15.0909C58.0792 15.4574 57.6317 15.9901 57.2653 16.6889C56.8988 17.3793 56.6388 18.2102 56.4854 19.1818ZM80.609 29.358C78.5124 29.358 76.7738 28.9574 75.3931 28.1562C74.0124 27.3466 73.0408 26.1875 72.4783 24.679C71.9158 23.1619 71.8136 21.3466 72.1715 19.233C72.5124 17.2045 73.2156 15.4318 74.2809 13.9148C75.3548 12.3977 76.7056 11.2173 78.3335 10.3736C79.9698 9.52983 81.8022 9.10795 83.8306 9.10795C85.3136 9.10795 86.6133 9.33807 87.7298 9.7983C88.8548 10.2585 89.771 10.9276 90.4783 11.8054C91.1857 12.6832 91.663 13.7443 91.9102 14.9886C92.1658 16.2244 92.1658 17.6222 91.9102 19.1818L91.6545 20.8182H74.1147L74.7283 16.9318H85.7738C85.859 16.3693 85.8036 15.875 85.6076 15.4489C85.4201 15.0142 85.1175 14.6776 84.6999 14.4389C84.2908 14.1918 83.7965 14.0682 83.217 14.0682C82.6374 14.0682 82.092 14.1918 81.5806 14.4389C81.0778 14.6861 80.6474 15.0312 80.2894 15.4744C79.94 15.9176 79.7056 16.4375 79.5863 17.0341L78.8192 21.125C78.717 21.7557 78.7553 22.3182 78.9343 22.8125C79.1133 23.3068 79.4244 23.6946 79.8675 23.9759C80.3107 24.2571 80.8817 24.3977 81.5806 24.3977C82.0579 24.3977 82.5096 24.3338 82.9357 24.206C83.3704 24.0696 83.7539 23.8736 84.0863 23.6179C84.4272 23.3537 84.6999 23.0341 84.9045 22.6591H91.3477C90.8874 24.0227 90.1587 25.2074 89.1616 26.2131C88.1729 27.2102 86.9542 27.9858 85.5053 28.5398C84.065 29.0852 82.4329 29.358 80.609 29.358ZM8.40448 31.8182L10.7056 50.2784H10.9102L19.3477 31.8182H27.3761L14.3874 58H4.67152L0.376065 31.8182H8.40448ZM28.6832 58.3068C27.4389 58.3068 26.3693 58.1023 25.4744 57.6932C24.5881 57.2756 23.9403 56.6449 23.5312 55.8011C23.1307 54.9489 23.0412 53.875 23.2628 52.5795C23.4418 51.5057 23.7784 50.5895 24.2727 49.831C24.767 49.0724 25.3807 48.4503 26.1136 47.9645C26.8466 47.4787 27.669 47.108 28.581 46.8523C29.5014 46.5881 30.473 46.4176 31.4957 46.3409C32.6037 46.2557 33.5028 46.1491 34.1932 46.0213C34.8835 45.8935 35.3991 45.7187 35.7401 45.4972C36.081 45.2756 36.2855 44.9773 36.3537 44.6023V44.5511C36.4304 44.0398 36.294 43.6477 35.9446 43.375C35.6037 43.1023 35.1264 42.9659 34.5128 42.9659C33.848 42.9659 33.2727 43.1108 32.7869 43.4006C32.3097 43.6903 31.9815 44.142 31.8026 44.7557H25.3082C25.581 43.5625 26.1392 42.4631 26.983 41.4574C27.8352 40.4432 28.9645 39.6335 30.3707 39.0284C31.7855 38.4148 33.473 38.108 35.4332 38.108C36.831 38.108 38.0582 38.2741 39.1151 38.6065C40.1719 38.9304 41.0455 39.3864 41.7358 39.9744C42.4347 40.554 42.9247 41.2358 43.206 42.0199C43.4957 42.7955 43.5639 43.6392 43.4105 44.5511L41.1605 58H34.5639L35.0241 55.2386H34.8707C34.3594 55.9716 33.7841 56.5639 33.1449 57.0156C32.5142 57.4673 31.8239 57.7955 31.0739 58C30.3324 58.2045 29.5355 58.3068 28.6832 58.3068ZM31.7514 53.858C32.2798 53.858 32.7997 53.7472 33.3111 53.5256C33.8224 53.304 34.2614 52.9844 34.6278 52.5668C34.9943 52.1491 35.2287 51.642 35.331 51.0455L35.5866 49.4091C35.3991 49.4858 35.1903 49.5582 34.9602 49.6264C34.7386 49.6861 34.5043 49.7457 34.2571 49.8054C34.0185 49.8651 33.7628 49.9205 33.4901 49.9716C33.2259 50.0227 32.9531 50.0739 32.6719 50.125C32.1094 50.2102 31.6364 50.3509 31.2528 50.5469C30.8693 50.7344 30.571 50.9688 30.358 51.25C30.1449 51.5227 30.0128 51.8295 29.9616 52.1705C29.8849 52.7074 30.0085 53.125 30.3324 53.4233C30.6648 53.7131 31.1378 53.858 31.7514 53.858ZM58.6971 49.4091L60.538 38.3636H67.5948L64.3221 58H57.6232L58.2369 54.267H58.0323C57.4272 55.5199 56.5238 56.5 55.3221 57.2074C54.1289 57.9062 52.7994 58.2557 51.3335 58.2557C49.9613 58.2557 48.815 57.9403 47.8945 57.3097C46.9741 56.679 46.3221 55.8097 45.9386 54.7017C45.555 53.5937 45.4783 52.3239 45.7085 50.892L47.805 38.3636H54.8619L53.021 49.4091C52.8761 50.3807 52.9996 51.1435 53.3917 51.6974C53.7923 52.2514 54.4357 52.5284 55.3221 52.5284C55.9102 52.5284 56.4386 52.4048 56.9073 52.1577C57.3846 51.902 57.7766 51.544 58.0835 51.0838C58.3988 50.6151 58.6033 50.0568 58.6971 49.4091ZM79.3146 31.8182L74.968 58H67.9112L72.2578 31.8182H79.3146ZM93.5465 38.3636L92.6772 43.4773H79.7397L80.609 38.3636H93.5465ZM83.8817 33.6591H90.9386L87.9471 51.6847C87.9045 51.9574 87.913 52.1875 87.9727 52.375C88.0323 52.554 88.1516 52.6903 88.3306 52.7841C88.5181 52.8693 88.7653 52.9119 89.0721 52.9119C89.2766 52.9119 89.5281 52.8864 89.8264 52.8352C90.1246 52.7756 90.3505 52.733 90.5039 52.7074L90.7085 57.6676C90.3505 57.7699 89.869 57.8849 89.2639 58.0128C88.6673 58.1491 87.9727 58.2386 87.18 58.2812C85.5266 58.358 84.18 58.1832 83.1403 57.7571C82.109 57.331 81.3931 56.6662 80.9925 55.7628C80.6005 54.8509 80.5323 53.7131 80.788 52.3494L83.8817 33.6591Z" fill="#F0EBEB"/>
</svg>
